<svg width="20" height="19" viewBox="0 0 20 19" fill="none" xmlns="http://www.w3.org/2000/svg">
<path d="M16 3.25H14.54L14.054 1.78906C13.747 0.869062 12.8889 0.25 11.9189 0.25H8.08105C7.11105 0.25 6.25305 0.869062 5.94604 1.78906L5.45996 3.25H4C1.582 3.25 0.25 4.582 0.25 7V15C0.25 17.418 1.582 18.75 4 18.75H16C18.418 18.75 19.75 17.418 19.75 15V7C19.75 4.582 18.418 3.25 16 3.25ZM18.25 15C18.25 16.577 17.577 17.25 16 17.25H4C2.423 17.25 1.75 16.577 1.75 15V7C1.75 5.423 2.423 4.75 4 4.75H6C6.323 4.75 6.60891 4.54306 6.71191 4.23706L7.37012 2.26196C7.47212 1.95496 7.75805 1.74902 8.08105 1.74902H11.9189C12.2419 1.74902 12.5279 1.95496 12.6299 2.26196L13.2881 4.23608C13.3911 4.54208 13.677 4.74902 14 4.74902H16C17.577 4.74902 18.25 5.42202 18.25 6.99902V15ZM10 7.25C7.933 7.25 6.25 8.932 6.25 11C6.25 13.068 7.933 14.75 10 14.75C12.067 14.75 13.75 13.068 13.75 11C13.75 8.932 12.067 7.25 10 7.25ZM10 13.25C8.76 13.25 7.75 12.241 7.75 11C7.75 9.759 8.76 8.75 10 8.75C11.24 8.75 12.25 9.759 12.25 11C12.25 12.241 11.24 13.25 10 13.25ZM16.5 7.5C16.5 8.052 16.052 8.5 15.5 8.5C14.948 8.5 14.5 8.052 14.5 7.5C14.5 6.948 14.948 6.5 15.5 6.5C16.052 6.5 16.5 6.948 16.5 7.5Z" fill="#25314C"/>
</svg>
