<svg width="12" height="14" viewBox="0 0 12 14" fill="none" xmlns="http://www.w3.org/2000/svg">
<path d="M7.33341 13.5C7.22741 13.5 7.12211 13.466 7.03345 13.4L4.36678 11.4C4.24145 11.3053 4.16675 11.1573 4.16675 11V8.33333C4.16675 8.2 4.11477 8.074 4.0201 7.97933L0.60612 4.56533C0.322786 4.28133 0.166748 3.90533 0.166748 3.50466V2C0.166748 1.17267 0.840081 0.5 1.66675 0.5H10.3334C11.1601 0.5 11.8334 1.17267 11.8334 2V3.50466C11.8334 3.90533 11.6774 4.28199 11.394 4.56533L7.98006 7.97933C7.88539 8.074 7.83341 8.19933 7.83341 8.33333V13C7.83341 13.1893 7.72672 13.3627 7.55672 13.4473C7.48605 13.4827 7.40941 13.5 7.33341 13.5ZM5.16675 10.75L6.83341 12V8.33333C6.83341 7.93267 6.98945 7.556 7.27279 7.27266L10.6868 3.85866C10.7814 3.764 10.8334 3.63866 10.8334 3.50466V2C10.8334 1.724 10.6087 1.5 10.3334 1.5H1.66675C1.39141 1.5 1.16675 1.724 1.16675 2V3.50466C1.16675 3.63799 1.21873 3.764 1.3134 3.85866L4.72738 7.27266C5.01071 7.55666 5.16675 7.93267 5.16675 8.33333V10.75Z" fill="#25314C"/>
</svg>
