<svg width="16" height="20" viewBox="0 0 16 20" fill="none" xmlns="http://www.w3.org/2000/svg">
<path d="M15.75 4.26196V2.5C15.75 1.259 14.74 0.25 13.5 0.25H2.5C1.26 0.25 0.25 1.259 0.25 2.5V4.2561C0.25 6.4361 1.17004 6.95989 2.14404 7.51489L6.50708 10L2.14404 12.4851C1.17004 13.0401 0.25 13.5639 0.25 15.7439V17.5C0.25 18.741 1.26 19.75 2.5 19.75H13.5C14.74 19.75 15.75 18.741 15.75 17.5V15.738C15.75 13.565 14.835 13.0411 13.865 12.4851L9.53003 10L13.865 7.51489C14.835 6.95889 15.75 6.43496 15.75 4.26196ZM13.1189 13.7871C13.9879 14.2851 14.25 14.435 14.25 15.739V17.501C14.25 17.915 13.913 18.251 13.5 18.251H2.5C2.087 18.251 1.75 17.915 1.75 17.501V15.7451C1.75 14.4371 2.01399 14.287 2.88599 13.79L8.02197 10.865L13.1189 13.7871ZM13.1189 6.21289L8.021 9.13599L2.88501 6.21094C2.01301 5.71394 1.74902 5.5641 1.74902 4.2561V2.5C1.74902 2.086 2.08602 1.75 2.49902 1.75H13.499C13.912 1.75 14.249 2.086 14.249 2.5V4.26196C14.25 5.56496 13.9879 5.71489 13.1189 6.21289Z" fill="#25314C"/>
</svg>
