<svg width="25" height="24" viewBox="0 0 25 24" fill="none" xmlns="http://www.w3.org/2000/svg">
<path d="M18.5 3.25H6.5C4.082 3.25 2.75 4.582 2.75 7V17C2.75 19.418 4.082 20.75 6.5 20.75H18.5C20.918 20.75 22.25 19.418 22.25 17V7C22.25 4.582 20.918 3.25 18.5 3.25ZM6.5 4.75H18.5C20.077 4.75 20.75 5.423 20.75 7V13.189L16.74 9.17993C16.08 8.51893 14.92 8.51893 14.26 9.17993L9.5 13.939L8.73999 13.1799C8.07999 12.5189 6.92001 12.5189 6.26001 13.1799L4.25 15.1899V7C4.25 5.423 4.923 4.75 6.5 4.75ZM18.5 19.25H6.5C5.028 19.25 4.35197 18.654 4.26697 17.293L7.31995 14.24C7.44695 14.114 7.55196 14.114 7.67896 14.24L8.61804 15.179C9.08504 15.647 9.91403 15.646 10.379 15.179L15.319 10.239C15.446 10.113 15.551 10.113 15.678 10.239L20.748 15.3091V17C20.75 18.577 20.077 19.25 18.5 19.25ZM7.25 9C7.25 8.31 7.81 7.75 8.5 7.75C9.19 7.75 9.75 8.31 9.75 9C9.75 9.69 9.19 10.25 8.5 10.25C7.81 10.25 7.25 9.69 7.25 9Z" fill="#002C98"/>
</svg>
