<svg width="16" height="16" viewBox="0 0 16 16" fill="none" xmlns="http://www.w3.org/2000/svg">
<path d="M8.00008 1.5C4.78341 1.5 2.16675 4.11667 2.16675 7.33333C2.16675 10.7453 5.29808 12.8133 7.37008 14.182L7.72275 14.416C7.80675 14.472 7.90341 14.5 8.00008 14.5C8.09675 14.5 8.19342 14.472 8.27742 14.416L8.63009 14.182C10.7021 12.8133 13.8334 10.7453 13.8334 7.33333C13.8334 4.11667 11.2167 1.5 8.00008 1.5ZM8.07942 13.3473L8.00008 13.4001L7.92075 13.3473C5.91408 12.022 3.16675 10.2073 3.16675 7.33333C3.16675 4.668 5.33475 2.5 8.00008 2.5C10.6654 2.5 12.8334 4.668 12.8334 7.33333C12.8334 10.2073 10.0854 12.0227 8.07942 13.3473ZM8.00008 5.16667C6.80541 5.16667 5.83341 6.13867 5.83341 7.33333C5.83341 8.528 6.80541 9.5 8.00008 9.5C9.19475 9.5 10.1667 8.528 10.1667 7.33333C10.1667 6.13867 9.19475 5.16667 8.00008 5.16667ZM8.00008 8.5C7.35675 8.5 6.83342 7.97667 6.83342 7.33333C6.83342 6.69 7.35675 6.16667 8.00008 6.16667C8.64341 6.16667 9.16675 6.69 9.16675 7.33333C9.16675 7.97667 8.64341 8.5 8.00008 8.5Z" fill="#D7E8FB"/>
</svg>
