<svg width="84" height="113" viewBox="0 0 84 113" fill="none" xmlns="http://www.w3.org/2000/svg">
<path d="M70.5 41.3486V29C70.5 13.28 57.72 0.5 42 0.5C26.28 0.5 13.5 13.28 13.5 29V41.3486C4.512 42.7466 0 48.614 0 59V95C0 107 6 113 18 113H66C78 113 84 107 84 95V59C84 48.614 79.488 42.7466 70.5 41.3486ZM46.5 76.9224V89C46.5 91.484 44.484 93.5 42 93.5C39.516 93.5 37.5 91.484 37.5 89V76.7715C35.772 75.3975 34.5894 73.37 34.5894 71C34.5894 66.86 37.9201 63.5 42.0601 63.5H42.1201C46.2601 63.5 49.6201 66.86 49.6201 71C49.6201 73.472 48.342 75.5604 46.5 76.9224ZM61.5 41H22.5V29C22.5 18.26 31.26 9.5 42 9.5C52.74 9.5 61.5 18.26 61.5 29V41Z" fill="#002C98"/>
</svg>
