<svg width="19" height="21" viewBox="0 0 19 21" fill="none" xmlns="http://www.w3.org/2000/svg">
<path d="M14.5 20.2499H4.5C2.082 20.2499 0.75 18.9179 0.75 16.4999V4.49988C0.75 2.08188 2.082 0.749878 4.5 0.749878H14.5C16.918 0.749878 18.25 2.08188 18.25 4.49988V16.4999C18.25 18.9179 16.918 20.2499 14.5 20.2499ZM4.5 2.24988C2.923 2.24988 2.25 2.92288 2.25 4.49988V16.4999C2.25 18.0769 2.923 18.7499 4.5 18.7499H14.5C16.077 18.7499 16.75 18.0769 16.75 16.4999V4.49988C16.75 2.92288 16.077 2.24988 14.5 2.24988H4.5ZM14.25 10.4999C14.25 10.0859 13.914 9.74988 13.5 9.74988H5.5C5.086 9.74988 4.75 10.0859 4.75 10.4999C4.75 10.9139 5.086 11.2499 5.5 11.2499H13.5C13.914 11.2499 14.25 10.9139 14.25 10.4999ZM11.25 14.4999C11.25 14.0859 10.914 13.7499 10.5 13.7499H5.5C5.086 13.7499 4.75 14.0859 4.75 14.4999C4.75 14.9139 5.086 15.2499 5.5 15.2499H10.5C10.914 15.2499 11.25 14.9139 11.25 14.4999ZM14.25 6.49988C14.25 6.08588 13.914 5.74988 13.5 5.74988H5.5C5.086 5.74988 4.75 6.08588 4.75 6.49988C4.75 6.91388 5.086 7.24988 5.5 7.24988H13.5C13.914 7.24988 14.25 6.91388 14.25 6.49988Z" fill="#DF3333"/>
</svg>
