<svg width="20" height="20" viewBox="0 0 20 20" fill="none" xmlns="http://www.w3.org/2000/svg">
<path d="M14.5521 19.7519C14.0931 19.7519 13.6311 19.6899 13.1751 19.5649C7.01011 17.8729 2.12909 12.9949 0.436095 6.83393C0.0510948 5.43293 0.262042 3.97292 1.03204 2.72492C1.80504 1.47092 3.0761 0.585915 4.5191 0.297915C5.4791 0.105915 6.4281 0.533922 6.9151 1.35492L8.47809 3.99491C9.23709 5.27691 8.85996 6.92791 7.61896 7.75391L6.4881 8.50592C7.5451 10.6759 9.32295 12.4589 11.4839 13.5149L12.2462 12.3779C13.0772 11.1389 14.7281 10.7679 16.0091 11.5309L18.6522 13.1069C19.4702 13.5949 19.8931 14.5499 19.7071 15.4819C19.4191 16.9249 18.5341 18.1959 17.2811 18.9689C16.4391 19.4869 15.5021 19.7519 14.5521 19.7519ZM4.97809 1.74991C4.92909 1.74991 4.87911 1.75493 4.83111 1.76493C3.77711 1.97593 2.86412 2.6109 2.31012 3.5119C1.76112 4.4019 1.61009 5.44092 1.88409 6.43592C3.43709 12.0889 7.91608 16.5659 13.5721 18.1179C14.5681 18.3909 15.604 18.2389 16.493 17.6909C17.393 17.1359 18.0291 16.2219 18.2361 15.1859C18.2981 14.8749 18.1571 14.5559 17.8831 14.3929L15.241 12.8169C14.646 12.4629 13.878 12.6359 13.492 13.2109L12.377 14.8759C12.177 15.1739 11.7911 15.2879 11.4651 15.1499C8.50215 13.9109 6.09113 11.4949 4.85113 8.52091C4.71313 8.18891 4.82899 7.80691 5.12799 7.60791L6.78912 6.5029C7.36512 6.1199 7.54007 5.35291 7.18707 4.75791L5.62408 2.1189C5.48708 1.8869 5.23909 1.74991 4.97809 1.74991Z" fill="#002C98"/>
</svg>
