<svg width="25" height="24" viewBox="0 0 25 24" fill="none" xmlns="http://www.w3.org/2000/svg">
<path d="M23.25 12C23.25 6.072 18.428 1.25 12.5 1.25C6.572 1.25 1.75 6.072 1.75 12C1.75 15.47 3.40899 18.552 5.96899 20.519C5.97299 20.523 5.97903 20.5251 5.98303 20.5291C7.79403 21.9161 10.049 22.75 12.501 22.75C14.953 22.75 17.208 21.9161 19.019 20.5291C19.023 20.5251 19.029 20.523 19.033 20.519C21.591 18.552 23.25 15.47 23.25 12ZM3.25 12C3.25 6.899 7.399 2.75 12.5 2.75C17.601 2.75 21.75 6.899 21.75 12C21.75 14.523 20.732 16.8121 19.088 18.4821C18.639 16.5811 17.202 14.8199 14.21 14.8199H10.79C7.79804 14.8199 6.35999 16.5811 5.91199 18.4821C4.26799 16.8121 3.25 14.523 3.25 12ZM7.25903 19.614C7.31703 18.588 7.78604 16.3199 10.79 16.3199H14.21C17.214 16.3199 17.683 18.588 17.741 19.614C16.25 20.644 14.445 21.25 12.5 21.25C10.555 21.25 8.75003 20.643 7.25903 19.614ZM12.5081 13.75C14.5751 13.75 16.2581 12.068 16.2581 10C16.2581 7.932 14.5751 6.25 12.5081 6.25C10.4411 6.25 8.75806 7.932 8.75806 10C8.75806 12.068 10.4401 13.75 12.5081 13.75ZM12.5081 7.75C13.7481 7.75 14.7581 8.759 14.7581 10C14.7581 11.241 13.7481 12.25 12.5081 12.25C11.2681 12.25 10.2581 11.241 10.2581 10C10.2581 8.759 11.2681 7.75 12.5081 7.75Z" fill="#5C5B69"/>
</svg>
